<?xml version="1.0" encoding="iso-8859-1"?>
<!-- Generator: Adobe Illustrator 19.0.0, SVG Export Plug-In . SVG Version: 6.00 Build 0)  -->
<svg version="1.1" id="Capa_1" xmlns="http://www.w3.org/2000/svg" xmlns:xlink="http://www.w3.org/1999/xlink" x="0px" y="0px"
	 viewBox="0 0 480 480" style="enable-background:new 0 0 480 480;" xml:space="preserve">
<g>
	<g>
		<path d="M472,0H8C3.576,0,0,3.584,0,8v96c0,4.416,3.576,8,8,8h464c4.424,0,8-3.584,8-8V8C480,3.584,476.424,0,472,0z M393.84,16
			L240,47.832L86.16,16H393.84z M16,17.824L200.512,56L16,94.176V17.824z M86.16,96L240,64.168L393.84,96H86.16z M464,94.176
			L279.488,56L464,17.824V94.176z"/>
	</g>
</g>
<g>
	<g>
		<path d="M472,128H8c-4.424,0-8,3.584-8,8v64c0,4.416,3.576,8,8,8h464c4.424,0,8-3.584,8-8v-64C480,131.584,476.424,128,472,128z
			 M464,192H16v-48h448V192z"/>
	</g>
</g>
<g>
	<g>
		<path d="M224,224H8c-4.424,0-8,3.584-8,8v240c0,4.416,3.576,8,8,8h216c4.424,0,8-3.584,8-8V232C232,227.584,228.424,224,224,224z
			 M206.04,240L116,340.04L25.96,240H206.04z M16,252.848L105.24,352L16,451.152V252.848z M25.96,464L116,363.96L206.04,464H25.96z
			 M216,451.152L126.76,352L216,252.848V451.152z"/>
	</g>
</g>
<g>
	<g>
		<path d="M472,224H256c-4.424,0-8,3.584-8,8v104c0,4.416,3.576,8,8,8h216c4.424,0,8-3.584,8-8V232C480,227.584,476.424,224,472,224
			z M436.944,240L364,275.12L291.056,240H436.944z M264,244.728L345.56,284L264,323.272V244.728z M291.056,328L364,292.88
			L436.944,328H291.056z M464,323.272L382.44,284L464,244.728V323.272z"/>
	</g>
</g>
<g>
	<g>
		<path d="M352,360h-96c-4.424,0-8,3.584-8,8v104c0,4.416,3.576,8,8,8h96c4.424,0,8-3.584,8-8V368C360,363.584,356.424,360,352,360z
			 M344,464h-80v-88h80V464z"/>
	</g>
</g>
<g>
	<g>
		<path d="M472,360h-88c-4.424,0-8,3.584-8,8v104c0,4.416,3.576,8,8,8h88c4.424,0,8-3.584,8-8V368C480,363.584,476.424,360,472,360z
			 M464,464h-72v-88h72V464z"/>
	</g>
</g>
<g>
	<g>
		<rect x="40" y="160" width="16" height="16"/>
	</g>
</g>
<g>
	<g>
		<rect x="72" y="160" width="16" height="16"/>
	</g>
</g>
<g>
	<g>
		<rect x="104" y="160" width="16" height="16"/>
	</g>
</g>
<g>
	<g>
		<rect x="136" y="160" width="16" height="16"/>
	</g>
</g>
<g>
	<g>
		<rect x="168" y="160" width="16" height="16"/>
	</g>
</g>
<g>
	<g>
		<rect x="200" y="160" width="16" height="16"/>
	</g>
</g>
<g>
	<g>
		<rect x="232" y="160" width="16" height="16"/>
	</g>
</g>
<g>
	<g>
		<rect x="264" y="160" width="16" height="16"/>
	</g>
</g>
<g>
	<g>
		<rect x="296" y="160" width="16" height="16"/>
	</g>
</g>
<g>
	<g>
		<rect x="328" y="160" width="16" height="16"/>
	</g>
</g>
<g>
	<g>
		<rect x="360" y="160" width="16" height="16"/>
	</g>
</g>
<g>
	<g>
		<rect x="392" y="160" width="16" height="16"/>
	</g>
</g>
<g>
	<g>
		<rect x="424" y="160" width="16" height="16"/>
	</g>
</g>
<g>
</g>
<g>
</g>
<g>
</g>
<g>
</g>
<g>
</g>
<g>
</g>
<g>
</g>
<g>
</g>
<g>
</g>
<g>
</g>
<g>
</g>
<g>
</g>
<g>
</g>
<g>
</g>
<g>
</g>
</svg>
