<?xml version="1.0" encoding="iso-8859-1"?>
<!-- Generator: Adobe Illustrator 19.0.0, SVG Export Plug-In . SVG Version: 6.00 Build 0)  -->
<svg version="1.1" id="Capa_1" xmlns="http://www.w3.org/2000/svg" xmlns:xlink="http://www.w3.org/1999/xlink" x="0px" y="0px"
	 viewBox="0 0 480 480" style="enable-background:new 0 0 480 480;" xml:space="preserve">
<g>
	<g>
		<path d="M240,0c-66.168,0-120,53.832-120,120s53.832,120,120,120s120-53.832,120-120S306.168,0,240,0z M343.592,112h-47.96
			c-0.816-13.216-3.448-25.808-7.272-37.408c12.424-3.616,24.488-8.72,35.984-15.192C335.192,74.448,342.096,92.456,343.592,112z
			 M313.936,46.968c-10.04,5.4-20.56,9.6-31.344,12.648c-7.536-17.408-16.848-31.896-24.256-41.896
			C279.88,21.576,299.16,32.008,313.936,46.968z M200.297,111.992c0.841-11.837,3.472-23.162,7.071-33.672
			c10.776,2.064,21.696,3.184,32.632,3.184c10.944,0,21.872-1.12,32.656-3.192c3.584,10.504,6.208,21.824,7.048,33.68H200.297z
			 M279.703,128.008c-0.881,12.421-3.752,24.266-7.615,35.2c-21.2-3.992-42.992-3.992-64.192,0.008
			c-3.856-10.928-6.72-22.776-7.592-35.208H279.703z M240.008,20.264c6.656,8.216,17.768,23.48,26.608,42.888
			c-17.6,3.024-35.592,3.024-53.192,0.008C222.256,43.768,233.36,28.488,240.008,20.264z M221.664,17.72
			c-7.408,10-16.72,24.488-24.256,41.896c-10.784-3.04-21.304-7.24-31.344-12.648C180.84,32.008,200.12,21.576,221.664,17.72z
			 M155.648,59.408c11.496,6.472,23.56,11.568,35.984,15.192c-3.816,11.592-6.456,24.192-7.272,37.408H136.4
			C137.904,92.456,144.808,74.448,155.648,59.408z M136.408,128h47.96c0.848,13.776,3.72,26.856,7.8,38.864
			c-12.304,3.544-24.264,8.528-35.672,14.864C145.176,166.456,137.944,148.04,136.408,128z M167.16,194.112
			c9.912-5.224,20.264-9.312,30.88-12.256c7.416,16.76,16.424,30.712,23.624,40.432C200.648,218.52,181.792,208.488,167.16,194.112z
			 M239.992,219.736c-6.48-8.008-17.192-22.696-25.912-41.384c17.144-2.864,34.656-2.872,51.808-0.008
			C257.168,197.016,246.464,211.728,239.992,219.736z M258.336,222.28c7.2-9.72,16.208-23.672,23.624-40.432
			c10.616,2.944,20.968,7.032,30.88,12.256C298.208,208.488,279.352,218.52,258.336,222.28z M323.504,181.728
			c-11.408-6.336-23.36-11.328-35.664-14.864c4.08-12,6.952-25.08,7.8-38.856h47.96C342.056,148.04,334.824,166.456,323.504,181.728
			z"/>
	</g>
</g>
<g>
	<g>
		<path d="M448,464V216c0-4.424-3.584-8-8-8h-48c-4.416,0-8,3.576-8,8v80h-40c-4.416,0-8,3.576-8,8v160h-40V312c0-4.424-3.584-8-8-8
			h-48c-4.416,0-8,3.576-8,8v104h-40c-4.416,0-8,3.576-8,8v40h-40V336c0-4.424-3.584-8-8-8H88c-4.416,0-8,3.576-8,8v24H40
			c-4.416,0-8,3.576-8,8v96H0v16h40h48h48h56h48h48h56h48h48h40v-16H448z M80,464H48v-88h32V464z M128,464H96v-96v-24h32V464z
			 M232,464h-32v-32h32V464z M280,464h-32v-40V320h32V464z M384,464h-32V312h32V464z M432,464h-32V304v-80h32V464z"/>
	</g>
</g>
<g>
	<g>
		<path d="M459.76,97.216l-64,40c-1.184,0.744-2.16,1.784-2.824,3.016L331.2,256H232c-2.52,0-4.888,1.184-6.4,3.2l-41,54.664
			l-33.816-54.112c-2.072-3.312-6.24-4.664-9.864-3.144l-96,40c-1.184,0.504-2.24,1.28-3.064,2.264l-40,48l12.288,10.248
			l38.744-46.496l87.92-36.64l36.4,58.248c1.4,2.232,3.808,3.64,6.448,3.752c2.648,0.232,5.16-1.08,6.736-3.192l45.6-60.8H336
			c2.952,0,5.664-1.624,7.056-4.232l63-118.12l62.184-38.864L459.76,97.216z"/>
	</g>
</g>
<g>
	<g>
		<rect x="368" y="32" width="16" height="16"/>
	</g>
</g>
<g>
	<g>
		<rect x="400" y="32" width="16" height="16"/>
	</g>
</g>
<g>
	<g>
		<rect x="400" y="64" width="16" height="16"/>
	</g>
</g>
<g>
	<g>
		<rect x="400" width="16" height="16"/>
	</g>
</g>
<g>
	<g>
		<rect x="96" y="32" width="16" height="16"/>
	</g>
</g>
<g>
	<g>
		<rect x="64" y="32" width="16" height="16"/>
	</g>
</g>
<g>
	<g>
		<rect x="64" width="16" height="16"/>
	</g>
</g>
<g>
	<g>
		<rect x="64" y="64" width="16" height="16"/>
	</g>
</g>
<g>
</g>
<g>
</g>
<g>
</g>
<g>
</g>
<g>
</g>
<g>
</g>
<g>
</g>
<g>
</g>
<g>
</g>
<g>
</g>
<g>
</g>
<g>
</g>
<g>
</g>
<g>
</g>
<g>
</g>
</svg>
