<?xml version="1.0" encoding="iso-8859-1"?>
<!-- Generator: Adobe Illustrator 19.0.0, SVG Export Plug-In . SVG Version: 6.00 Build 0)  -->
<svg version="1.1" id="Capa_1" xmlns="http://www.w3.org/2000/svg" xmlns:xlink="http://www.w3.org/1999/xlink" x="0px" y="0px"
	 viewBox="0 0 485.656 485.656" style="enable-background:new 0 0 485.656 485.656;" xml:space="preserve">
<g>
	<g>
		<path d="M434.828,48h-48V8c0-4.424-3.584-8-8-8h-368c-4.416,0-8,3.576-8,8v312c0,4.424,3.584,8,8,8h32v48c0,4.424,3.584,8,8,8h384
			c4.416,0,8-3.576,8-8V56C442.828,51.576,439.244,48,434.828,48z M18.828,312V16h352v296H18.828z M426.828,368h-368v-40h320
			c4.416,0,8-3.576,8-8V64h40V368z"/>
	</g>
</g>
<g>
	<g>
		<path d="M232.484,90.344c-3.128-3.128-8.184-3.128-11.312,0l-74.344,74.344l-22.344-22.344c-3.128-3.128-8.184-3.128-11.312,0
			l-84,84l11.312,11.312l78.344-78.344l78.344,78.344l11.312-11.312L158.14,176l68.688-68.688l122.344,122.344l11.312-11.312
			L232.484,90.344z"/>
	</g>
</g>
<g>
	<g>
		<path d="M82.828,40c-22.056,0-40,17.944-40,40c0,22.056,17.944,40,40,40c22.056,0,40-17.944,40-40
			C122.828,57.944,104.884,40,82.828,40z M82.828,104c-13.232,0-24-10.768-24-24s10.768-24,24-24s24,10.768,24,24
			S96.06,104,82.828,104z"/>
	</g>
</g>
<g>
	<g>
		<path d="M329.812,273.752c-4.536,3.632-7.816,6.248-15.016,6.248c-7.208,0-10.488-2.624-15.024-6.248
			c-5.44-4.344-12.2-9.752-25.016-9.752c-12.808,0-19.568,5.408-25,9.752c-4.704,3.76-7.808,6.248-15.008,6.248
			c-7.184,0-10.288-2.488-14.992-6.24c-5.424-4.352-12.176-9.76-24.976-9.76c-12.808,0-19.568,5.408-25,9.752
			c-4.704,3.76-7.808,6.248-15,6.248c-7.184,0-10.296-2.488-14.992-6.24c-5.432-4.352-12.184-9.76-24.992-9.76
			s-19.56,5.408-24.992,9.76c-4.696,3.76-7.808,6.24-14.992,6.24s-10.296-2.488-14.992-6.24c-5.432-4.352-12.184-9.76-24.992-9.76
			v16c7.184,0,10.296,2.488,14.992,6.24c5.432,4.352,12.184,9.76,24.992,9.76s19.56-5.408,24.992-9.76
			c4.696-3.76,7.808-6.24,14.992-6.24c7.184,0,10.296,2.488,14.992,6.24c5.432,4.352,12.184,9.76,24.992,9.76
			c12.808,0,19.56-5.408,24.992-9.752c4.704-3.76,7.808-6.248,15.008-6.248c7.184,0,10.288,2.488,14.984,6.24
			c5.424,4.352,12.184,9.76,24.984,9.76c12.808,0,19.568-5.408,25-9.752c4.704-3.76,7.816-6.248,15.008-6.248
			c7.2,0,10.48,2.616,15.016,6.248c5.44,4.344,12.208,9.752,25.024,9.752s19.576-5.408,25.008-9.752
			c4.536-3.624,7.816-6.248,15.024-6.248v-16C342.012,264,335.252,269.408,329.812,273.752z"/>
	</g>
</g>
<g>
	<g>
		<path d="M144.484,402.344c-1.984-1.984-4.856-2.808-7.6-2.104l-64,16c-2.8,0.696-5,2.84-5.768,5.624
			c-0.768,2.776,0.016,5.752,2.056,7.792L87.516,448l-26.344,26.344l11.312,11.312l26.344-26.344l18.344,18.344
			c1.52,1.52,3.56,2.344,5.656,2.344c0.712,0,1.432-0.096,2.136-0.288c2.776-0.776,4.928-2.976,5.624-5.776l16-64
			C147.268,407.208,146.468,404.328,144.484,402.344z M118.492,456.352l-28.016-28.016l37.352-9.344L118.492,456.352z"/>
	</g>
</g>
<g>
	<g>
		<rect x="210.828" y="464" width="16" height="16"/>
	</g>
</g>
<g>
	<g>
		<rect x="242.828" y="464" width="16" height="16"/>
	</g>
</g>
<g>
	<g>
		<rect x="274.828" y="464" width="16" height="16"/>
	</g>
</g>
<g>
	<g>
		<rect x="306.828" y="464" width="16" height="16"/>
	</g>
</g>
<g>
	<g>
		<rect x="338.828" y="464" width="16" height="16"/>
	</g>
</g>
<g>
	<g>
		<rect x="370.828" y="464" width="16" height="16"/>
	</g>
</g>
<g>
	<g>
		<rect x="402.828" y="464" width="16" height="16"/>
	</g>
</g>
<g>
	<g>
		<rect x="434.828" y="464" width="16" height="16"/>
	</g>
</g>
<g>
	<g>
		<rect x="466.828" y="464" width="16" height="16"/>
	</g>
</g>
<g>
	<g>
		<rect x="466.828" y="432" width="16" height="16"/>
	</g>
</g>
<g>
	<g>
		<rect x="466.828" y="400" width="16" height="16"/>
	</g>
</g>
<g>
	<g>
		<rect x="466.828" y="368" width="16" height="16"/>
	</g>
</g>
<g>
	<g>
		<rect x="466.828" y="336" width="16" height="16"/>
	</g>
</g>
<g>
	<g>
		<rect x="466.828" y="304" width="16" height="16"/>
	</g>
</g>
<g>
	<g>
		<rect x="466.828" y="272" width="16" height="16"/>
	</g>
</g>
<g>
	<g>
		<rect x="466.828" y="240" width="16" height="16"/>
	</g>
</g>
<g>
	<g>
		<rect x="466.828" y="208" width="16" height="16"/>
	</g>
</g>
<g>
</g>
<g>
</g>
<g>
</g>
<g>
</g>
<g>
</g>
<g>
</g>
<g>
</g>
<g>
</g>
<g>
</g>
<g>
</g>
<g>
</g>
<g>
</g>
<g>
</g>
<g>
</g>
<g>
</g>
</svg>
