<?xml version="1.0" encoding="iso-8859-1"?>
<!-- Generator: Adobe Illustrator 19.0.0, SVG Export Plug-In . SVG Version: 6.00 Build 0)  -->
<svg version="1.1" id="Capa_1" xmlns="http://www.w3.org/2000/svg" xmlns:xlink="http://www.w3.org/1999/xlink" x="0px" y="0px"
	 viewBox="0 0 480 480" style="enable-background:new 0 0 480 480;" xml:space="preserve">
<g>
	<g>
		<path d="M472,120h-48V8c0-4.424-3.576-8-8-8H8C3.576,0,0,3.576,0,8v352c0,4.424,3.576,8,8,8h72v104c0,4.424,3.576,8,8,8h352
			c22.056,0,40-17.944,40-40V128C480,123.576,476.424,120,472,120z M16,16h392v32H16V16z M80,128v224H16V64h392v56H88
			C83.576,120,80,123.576,80,128z M464,440c0,13.232-10.768,24-24,24H96V184h368V440z M464,168H96v-32h368V168z"/>
	</g>
</g>
<g>
	<g>
		<path d="M189.656,285.656l-11.312-11.312l-56,56c-3.128,3.128-3.128,8.184,0,11.312l56,56l11.312-11.312L139.312,336
			L189.656,285.656z"/>
	</g>
</g>
<g>
	<g>
		<path d="M389.656,330.344l-56-56l-11.312,11.312L372.688,336l-50.344,50.344l11.312,11.312l56-56
			C392.784,338.528,392.784,333.472,389.656,330.344z"/>
	</g>
</g>
<g>
	<g>
		
			<rect x="179.504" y="320.021" transform="matrix(0.4472 -0.8944 0.8944 0.4472 -149.6763 413.8602)" width="160.955" height="15.999"/>
	</g>
</g>
<g>
	<g>
		<rect x="368" y="384" width="16" height="16"/>
	</g>
</g>
<g>
	<g>
		<rect x="400" y="384" width="16" height="16"/>
	</g>
</g>
<g>
	<g>
		<rect x="432" y="384" width="16" height="16"/>
	</g>
</g>
<g>
	<g>
		<rect x="120" y="232" width="16" height="16"/>
	</g>
</g>
<g>
	<g>
		<rect x="152" y="232" width="16" height="16"/>
	</g>
</g>
<g>
	<g>
		<rect x="184" y="232" width="16" height="16"/>
	</g>
</g>
<g>
	<g>
		<rect x="120" y="200" width="16" height="16"/>
	</g>
</g>
<g>
	<g>
		<rect x="152" y="200" width="16" height="16"/>
	</g>
</g>
<g>
	<g>
		<rect x="184" y="200" width="16" height="16"/>
	</g>
</g>
<g>
</g>
<g>
</g>
<g>
</g>
<g>
</g>
<g>
</g>
<g>
</g>
<g>
</g>
<g>
</g>
<g>
</g>
<g>
</g>
<g>
</g>
<g>
</g>
<g>
</g>
<g>
</g>
<g>
</g>
</svg>
